<svg xmlns="http://www.w3.org/2000/svg" width="600" height="600"><rect width="600" height="600" x="0" y="0" fill="#FFFFFF" id="backgorund"/><g id="viz"><g transform="translate(0,0)"><g transform="translate(10,20)"><g><path fill="rgb(255, 245, 240)" d="M0,550.6666666666666C48.28923357664234,550.6666666666666,48.28923357664234,560,96.57846715328468,560C145,560,145,550.6666666666666,193.4215328467153,550.6666666666666C241.71076642335765,550.6666666666666,241.71076642335765,560,290,560C338.28923357664235,560,338.28923357664235,560,386.57846715328463,560C434.86770072992704,560,434.86770072992704,560,483.1569343065694,560C531.5784671532847,560,531.5784671532847,560,580,560L580,560C531.5784671532847,560,531.5784671532847,560,483.1569343065694,560C434.86770072992704,560,434.86770072992704,560,386.57846715328463,560C338.28923357664235,560,338.28923357664235,560,290,560C241.71076642335765,560,241.71076642335765,560,193.4215328467153,560C145,560,145,560,96.57846715328468,560C48.28923357664234,560,48.28923357664234,560,0,560Z"><title>2</title></path><path fill="rgb(255, 242, 236)" d="M0,550.6666666666666C48.28923357664234,550.6666666666666,48.28923357664234,541.3333333333334,96.57846715328468,541.3333333333334C145,541.3333333333334,145,550.6666666666666,193.4215328467153,550.6666666666666C241.71076642335765,550.6666666666666,241.71076642335765,560,290,560C338.28923357664235,560,338.28923357664235,560,386.57846715328463,560C434.86770072992704,560,434.86770072992704,560,483.1569343065694,560C531.5784671532847,560,531.5784671532847,560,580,560L580,560C531.5784671532847,560,531.5784671532847,560,483.1569343065694,560C434.86770072992704,560,434.86770072992704,560,386.57846715328463,560C338.28923357664235,560,338.28923357664235,560,290,560C241.71076642335765,560,241.71076642335765,550.6666666666666,193.4215328467153,550.6666666666666C145,550.6666666666666,145,560,96.57846715328468,560C48.28923357664234,560,48.28923357664234,550.6666666666666,0,550.6666666666666Z"><title>4</title></path><path fill="rgb(253, 198, 176)" d="M0,550.6666666666666C48.28923357664234,550.6666666666666,48.28923357664234,541.3333333333334,96.57846715328468,541.3333333333334C145,541.3333333333334,145,550.6666666666666,193.4215328467153,550.6666666666666C241.71076642335765,550.6666666666666,241.71076642335765,438.6666666666667,290,438.6666666666667C338.28923357664235,438.6666666666667,338.28923357664235,560,386.57846715328463,560C434.86770072992704,560,434.86770072992704,560,483.1569343065694,560C531.5784671532847,560,531.5784671532847,560,580,560L580,560C531.5784671532847,560,531.5784671532847,560,483.1569343065694,560C434.86770072992704,560,434.86770072992704,560,386.57846715328463,560C338.28923357664235,560,338.28923357664235,560,290,560C241.71076642335765,560,241.71076642335765,550.6666666666666,193.4215328467153,550.6666666666666C145,550.6666666666666,145,541.3333333333334,96.57846715328468,541.3333333333334C48.28923357664234,541.3333333333334,48.28923357664234,550.6666666666666,0,550.6666666666666Z"><title>26</title></path><path fill="rgb(103, 0, 13)" d="M0,550.6666666666666C48.28923357664234,550.6666666666666,48.28923357664234,541.3333333333334,96.57846715328468,541.3333333333334C145,541.3333333333334,145,550.6666666666666,193.4215328467153,550.6666666666666C241.71076642335765,550.6666666666666,241.71076642335765,438.6666666666667,290,438.6666666666667C338.28923357664235,438.6666666666667,338.28923357664235,18.666666666666664,386.57846715328463,18.666666666666664C434.86770072992704,18.666666666666664,434.86770072992704,560,483.1569343065694,560C531.5784671532847,560,531.5784671532847,560,580,560L580,560C531.5784671532847,560,531.5784671532847,560,483.1569343065694,560C434.86770072992704,560,434.86770072992704,560,386.57846715328463,560C338.28923357664235,560,338.28923357664235,438.6666666666667,290,438.6666666666667C241.71076642335765,438.6666666666667,241.71076642335765,550.6666666666666,193.4215328467153,550.6666666666666C145,550.6666666666666,145,541.3333333333334,96.57846715328468,541.3333333333334C48.28923357664234,541.3333333333334,48.28923357664234,550.6666666666666,0,550.6666666666666Z"><title>116</title></path><path fill="rgb(255, 238, 229)" d="M0,550.6666666666666C48.28923357664234,550.6666666666666,48.28923357664234,541.3333333333334,96.57846715328468,541.3333333333334C145,541.3333333333334,145,550.6666666666666,193.4215328467153,550.6666666666666C241.71076642335765,550.6666666666666,241.71076642335765,438.6666666666667,290,438.6666666666667C338.28923357664235,438.6666666666667,338.28923357664235,18.666666666666664,386.57846715328463,18.666666666666664C434.86770072992704,18.666666666666664,434.86770072992704,527.3333333333334,483.1569343065694,527.3333333333334C531.5784671532847,527.3333333333334,531.5784671532847,560,580,560L580,560C531.5784671532847,560,531.5784671532847,560,483.1569343065694,560C434.86770072992704,560,434.86770072992704,18.666666666666664,386.57846715328463,18.666666666666664C338.28923357664235,18.666666666666664,338.28923357664235,438.6666666666667,290,438.6666666666667C241.71076642335765,438.6666666666667,241.71076642335765,550.6666666666666,193.4215328467153,550.6666666666666C145,550.6666666666666,145,541.3333333333334,96.57846715328468,541.3333333333334C48.28923357664234,541.3333333333334,48.28923357664234,550.6666666666666,0,550.6666666666666Z"><title>7</title></path><path fill="rgb(252, 157, 127)" d="M0,550.6666666666666C48.28923357664234,550.6666666666666,48.28923357664234,541.3333333333334,96.57846715328468,541.3333333333334C145,541.3333333333334,145,550.6666666666666,193.4215328467153,550.6666666666666C241.71076642335765,550.6666666666666,241.71076642335765,438.6666666666667,290,438.6666666666667C338.28923357664235,438.6666666666667,338.28923357664235,18.666666666666664,386.57846715328463,18.666666666666664C434.86770072992704,18.666666666666664,434.86770072992704,527.3333333333334,483.1569343065694,527.3333333333334C531.5784671532847,527.3333333333334,531.5784671532847,368.6666666666667,580,368.6666666666667L580,560C531.5784671532847,560,531.5784671532847,527.3333333333334,483.1569343065694,527.3333333333334C434.86770072992704,527.3333333333334,434.86770072992704,18.666666666666664,386.57846715328463,18.666666666666664C338.28923357664235,18.666666666666664,338.28923357664235,438.6666666666667,290,438.6666666666667C241.71076642335765,438.6666666666667,241.71076642335765,550.6666666666666,193.4215328467153,550.6666666666666C145,550.6666666666666,145,541.3333333333334,96.57846715328468,541.3333333333334C48.28923357664234,541.3333333333334,48.28923357664234,550.6666666666666,0,550.6666666666666Z"><title>41</title></path></g><g id="xAxis" transform="translate(0,560)" fill="none" font-size="10" font-family="sans-serif" text-anchor="middle"><path class="domain" stroke="currentColor" d="M0,0H580"/><g class="tick" opacity="1" transform="translate(0,0)"><line stroke="currentColor" y2="6"/><text fill="currentColor" y="9" dy="0.71em">2015</text></g><g class="tick" opacity="1" transform="translate(96.57846715328468,0)"><line stroke="currentColor" y2="6"/><text fill="currentColor" y="9" dy="0.71em">2016</text></g><g class="tick" opacity="1" transform="translate(193.4215328467153,0)"><line stroke="currentColor" y2="6"/><text fill="currentColor" y="9" dy="0.71em">2017</text></g><g class="tick" opacity="1" transform="translate(290,0)"><line stroke="currentColor" y2="6"/><text fill="currentColor" y="9" dy="0.71em">2018</text></g><g class="tick" opacity="1" transform="translate(386.57846715328463,0)"><line stroke="currentColor" y2="6"/><text fill="currentColor" y="9" dy="0.71em">2019</text></g><g class="tick" opacity="1" transform="translate(483.1569343065694,0)"><line stroke="currentColor" y2="6"/><text fill="currentColor" y="9" dy="0.71em">2020</text></g><g class="tick" opacity="1" transform="translate(580,0)"><line stroke="currentColor" y2="6"/><text fill="currentColor" y="9" dy="0.71em">2021</text></g></g><text y="556" x="580" text-anchor="end" style="font-family: Arial, sans-serif; font-size: 12px; fill: rgb(123, 123, 123); font-weight: bold;">Year</text><text x="4" text-anchor="start" dominant-baseline="hanging" style="font-family: Arial, sans-serif; font-size: 12px; fill: rgb(123, 123, 123); font-weight: bold;">Number of NYT articles that mentioned "border crisis" or "crisis at the border"</text><g id="labels"><text x="0" y="555.3333333333334" text-anchor="start" alignment-baseline="middle" style="font-family: Arial, sans-serif; font-size: 10px; fill: black; font-weight: bold; stroke-width: 2px; paint-order: stroke; stroke: white; stroke-linecap: round; stroke-linejoin: round;">2</text><text x="96.57846715328468" y="550.6666666666666" text-anchor="middle" alignment-baseline="middle" style="font-family: Arial, sans-serif; font-size: 10px; fill: black; font-weight: bold; stroke-width: 2px; paint-order: stroke; stroke: white; stroke-linecap: round; stroke-linejoin: round;">4</text><text x="290" y="499.3333333333333" text-anchor="middle" alignment-baseline="middle" style="font-family: Arial, sans-serif; font-size: 10px; fill: black; font-weight: bold; stroke-width: 2px; paint-order: stroke; stroke: white; stroke-linecap: round; stroke-linejoin: round;">26</text><text x="386.57846715328463" y="289.3333333333333" text-anchor="middle" alignment-baseline="middle" style="font-family: Arial, sans-serif; font-size: 10px; fill: black; font-weight: bold; stroke-width: 2px; paint-order: stroke; stroke: white; stroke-linecap: round; stroke-linejoin: round;">116</text><text x="483.1569343065694" y="543.6666666666666" text-anchor="middle" alignment-baseline="middle" style="font-family: Arial, sans-serif; font-size: 10px; fill: black; font-weight: bold; stroke-width: 2px; paint-order: stroke; stroke: white; stroke-linecap: round; stroke-linejoin: round;">7</text><text x="580" y="464.3333333333333" text-anchor="end" alignment-baseline="middle" style="font-family: Arial, sans-serif; font-size: 10px; fill: black; font-weight: bold; stroke-width: 2px; paint-order: stroke; stroke: white; stroke-linecap: round; stroke-linejoin: round;">41</text></g></g><text x="4" y="4" style="font-family: Arial, sans-serif; font-size: 12px; fill: black; font-weight: bold; dominant-baseline: hanging;"/></g></g></svg>